<svg id="visual" viewBox="0 0 900 600" width="900" height="600" xmlns="http://www.w3.org/2000/svg" xmlns:xlink="http://www.w3.org/1999/xlink" version="1.1"><path d="M845 600L818 545L800 491L746 436L782 382L809 327L836 273L764 218L755 164L800 109L809 55L773 0L900 0L900 55L900 109L900 164L900 218L900 273L900 327L900 382L900 436L900 491L900 545L900 600Z" fill="#5b5f5e"></path><path d="M638 600L593 545L638 491L458 436L557 382L647 327L557 273L458 218L404 164L593 109L629 55L476 0L774 0L810 55L801 109L756 164L765 218L837 273L810 327L783 382L747 436L801 491L819 545L846 600Z" fill="#474a4a"></path><path d="M323 600L359 545L332 491L224 436L170 382L332 327L296 273L242 218L206 164L323 109L233 55L269 0L477 0L630 55L594 109L405 164L459 218L558 273L648 327L558 382L459 436L639 491L594 545L639 600Z" fill="#343636"></path><path d="M188 600L170 545L170 491L62 436L80 382L152 327L116 273L143 218L134 164L134 109L125 55L152 0L270 0L234 55L324 109L207 164L243 218L297 273L333 327L171 382L225 436L333 491L360 545L324 600Z" fill="#222323"></path><path d="M0 600L0 545L0 491L0 436L0 382L0 327L0 273L0 218L0 164L0 109L0 55L0 0L153 0L126 55L135 109L135 164L144 218L117 273L153 327L81 382L63 436L171 491L171 545L189 600Z" fill="#101111"></path></svg>